 <!--Created for free with Tennessine's Flag Designer at https://tennessine.co.uk/flags/--><!DOCTYPE svg PUBLIC "-//W3C//DTD SVG 1.1//EN" "http://www.w3.org/Graphics/SVG/1.1/DTD/svg11.dtd"><svg xmlns="http://www.w3.org/2000/svg" xmlns:xlink="http://www.w3.org/1999/xlink" width="1470" height="735" viewBox="0 0 100 50" class="svg faded fadein" id="svg"><path d="M0,0L100,0L100,50L0,50Z" fill="rgb(255,255,255)"/><g class="svg-group svg-group-clickable" data-id="1" data-type="Rectangle" transform="rotate(0,50,8.332500457763672)"><path d="M0,0L100,0L100,16.665L0,16.665Z" fill="rgb(0,0,0)"/></g><g class="svg-group svg-group-clickable" data-id="2" data-type="Rectangle" transform="rotate(0,50,41.66749954223633)"><path d="M0,33.335L100,33.335L100,50L0,50Z" fill="rgb(0,150,57)"/></g><g class="svg-group svg-group-clickable" transform="rotate(0,25,25)" data-id="3" data-type="Shape"><path d="M0.00,0.00L50.00,25.00L0.00,50.00" fill="rgb(218,41,28)"/></g><g class="svg-group svg-group-clickable" data-id="4" data-type="Star" transform="rotate(0,15.349999904632568,24.824999809265137)"><path d="M15.35,25L15.35,21.43L16.12,23.41L18.14,22.77L17.08,24.61L18.83,25.79L16.73,26.10L16.90,28.22L15.35,26.77L13.80,28.22L13.97,26.10L11.87,25.79L13.62,24.61L12.56,22.77L14.58,23.41L15.35,21.43L16.12,23.41" fill="rgb(255,255,255)"/></g><defs id="font-data"><style xmlns="http://www.w3.org/1999/xhtml">svg * { -webkit-tap-highlight-color: rgba(0, 0, 0, 0); }
.svg-group-clickable { cursor: pointer; }
.faded { opacity: 0.75; }
.fadein { opacity: 1; transition: opacity 0.3s ease 0s; }
</style></defs></svg>