 <!--Created for free with Tennessine's Flag Designer at https://tennessine.co.uk/flags/--><!DOCTYPE svg PUBLIC "-//W3C//DTD SVG 1.1//EN" "http://www.w3.org/Graphics/SVG/1.1/DTD/svg11.dtd"><svg xmlns="http://www.w3.org/2000/svg" xmlns:xlink="http://www.w3.org/1999/xlink" width="1470" height="735" viewBox="0 0 100 50" class="svg faded fadein" id="svg"><path d="M0,0L100,0L100,50L0,50Z" fill="rgb(0,0,0)"/><g class="svg-group svg-group-clickable" data-id="1" data-type="Rectangle" transform="rotate(0,50,6.5)"><path d="M0,0L100,0L100,13L0,13Z" fill="rgb(178,34,52)"/></g><g class="svg-group svg-group-clickable" data-id="2" data-type="Rectangle" transform="rotate(0,50,43.400001525878906)"><path d="M0,36.899999999999984L100,36.899999999999984L100,49.899999999999984L0,49.899999999999984Z" fill="rgb(60,59,110)"/></g><g class="svg-group svg-group-clickable" data-id="3" data-type="Rectangle" transform="rotate(0,50,30.88843536376953)"><path d="M0,24.888435374149637L100,24.888435374149637L100,36.888435374149644L0,36.888435374149644Z" fill="rgb(0,150,57)"/></g><g class="svg-group svg-group-clickable" data-id="4" data-type="Rectangle" transform="rotate(0,50,18.946258544921875)"><path d="M0,12.946258503401362L100,12.946258503401362L100,24.94625850340136L0,24.94625850340136Z" fill="rgb(252,209,22)"/></g><g class="svg-group svg-group-clickable" transform="rotate(0,16.665000915527344,25)" data-id="5" data-type="Shape"><path d="M0.00,0.00L33.33,25.00L0.00,50.00" fill="rgb(252,209,22)"/></g><g class="svg-group svg-group-clickable" transform="rotate(0,16.665000915527344,25)" data-id="6" data-type="Shape"><path d="M0.00,0.00L33.33,25.00L0.00,50.00" fill="rgb(255,255,255)"/></g><g class="svg-group svg-group-clickable" data-id="7" data-type="Star" transform="rotate(0,1.4900000095367432,3)"><path d="M1.4918156440015526,3.1502204482565386L1.49,1.58L1.86,2.64L2.98,2.67L2.09,3.34L2.41,4.42L1.49,3.78L0.57,4.42L0.90,3.34L-0.00,2.67L1.12,2.64L1.49,1.58L1.86,2.64" fill="rgb(255,203,33)"/></g><g class="svg-group svg-group-clickable" data-id="8" data-type="Star" transform="rotate(0,1.4900000095367432,5.909999847412109)"><path d="M1.4918156440015524,6.058383713562661L1.49,4.49L1.86,5.55L2.98,5.57L2.09,6.25L2.41,7.33L1.49,6.69L0.57,7.33L0.90,6.25L-0.00,5.57L1.12,5.55L1.49,4.49L1.86,5.55" fill="rgb(255,203,33)"/></g><g class="svg-group svg-group-clickable" data-id="9" data-type="Star" transform="rotate(0,1.4900000095367432,8.680000305175781)"><path d="M1.4918156440015533,8.830492557100076L1.49,7.26L1.86,8.32L2.98,8.35L2.09,9.02L2.41,10.10L1.49,9.46L0.57,10.10L0.90,9.02L0.00,8.35L1.12,8.32L1.49,7.26L1.86,8.32" fill="rgb(255,203,33)"/></g><g class="svg-group svg-group-clickable" data-id="10" data-type="Star" transform="rotate(0,1.4900000095367432,11.385000228881836)"><path d="M1.4918156440015524,11.534574189753137L1.49,9.97L1.86,11.03L2.98,11.05L2.09,11.73L2.41,12.80L1.49,12.16L0.57,12.80L0.90,11.73L-0.00,11.05L1.12,11.03L1.49,9.97L1.86,11.03" fill="rgb(255,203,33)"/></g><g class="svg-group svg-group-clickable" data-id="11" data-type="Star" transform="rotate(0,1.4900000095367432,14.360000133514404)"><path d="M1.4918156440015515,14.510764665943613L1.49,12.94L1.86,14.00L2.98,14.03L2.09,14.70L2.41,15.78L1.49,15.14L0.57,15.78L0.90,14.70L-0.00,14.03L1.12,14.00L1.49,12.94L1.86,14.00" fill="rgb(255,203,33)"/></g><g class="svg-group svg-group-clickable" data-id="12" data-type="Star" transform="rotate(0,1.4900000095367432,17.12999963760376)"><path d="M1.4918156440015515,17.28287350948103L1.49,15.71L1.86,16.78L2.98,16.80L2.09,17.48L2.41,18.55L1.49,17.91L0.57,18.55L0.90,17.48L-0.00,16.80L1.12,16.78L1.49,15.71L1.86,16.78" fill="rgb(255,203,33)"/></g><g class="svg-group svg-group-clickable" data-id="13" data-type="Star" transform="rotate(0,1.4900000095367432,19.969999313354492)"><path d="M1.4918156440015515,20.123009563902798L1.49,18.55L1.86,19.62L2.98,19.64L2.09,20.32L2.41,21.39L1.49,20.75L0.57,21.39L0.90,20.32L-0.00,19.64L1.12,19.62L1.49,18.55L1.86,19.62" fill="rgb(255,203,33)"/></g><g class="svg-group svg-group-clickable" data-id="14" data-type="Star" transform="rotate(0,1.4900000095367432,22.950000762939453)"><path d="M1.491815644001555,23.099200040093276L1.49,21.53L1.86,22.59L2.98,22.61L2.09,23.29L2.41,24.37L1.49,23.73L0.57,24.37L0.90,23.29L0.00,22.61L1.12,22.59L1.49,21.53L1.86,22.59" fill="rgb(255,203,33)"/></g><g class="svg-group svg-group-clickable" data-id="15" data-type="Star" transform="rotate(0,41.489999771118164,23)"><path d="M41.49181564400155,23.15022044825654L41.49,21.58L41.86,22.64L42.98,22.67L42.09,23.34L42.41,24.42L41.49,23.78L40.57,24.42L40.90,23.34L40.00,22.67L41.12,22.64L41.49,21.58L41.86,22.64" fill="rgb(255,203,33)"/></g><g class="svg-group svg-group-clickable" data-id="16" data-type="Star" transform="rotate(0,1.4900000095367432,26.110000610351562)"><path d="M1.491815644001555,26.262465346215723L1.49,24.69L1.86,25.75L2.98,25.78L2.09,26.46L2.41,27.53L1.49,26.89L0.57,27.53L0.90,26.46L0.00,25.78L1.12,25.75L1.49,24.69L1.86,25.75" fill="rgb(255,203,33)"/></g><g class="svg-group svg-group-clickable" data-id="17" data-type="Star" transform="rotate(0,1.4900000095367432,29.22499942779541)"><path d="M1.491815644001555,29.374710244174906L1.49,27.81L1.86,28.87L2.98,28.89L2.09,29.57L2.41,30.64L1.49,30.00L0.57,30.64L0.90,29.57L0.00,28.89L1.12,28.87L1.49,27.81L1.86,28.87" fill="rgb(255,203,33)"/></g><g class="svg-group svg-group-clickable" data-id="18" data-type="Star" transform="rotate(0,1.4900000095367432,32.269999504089355)"><path d="M1.491815644001555,32.41892793124974L1.49,30.85L1.86,31.91L2.98,31.93L2.09,32.61L2.41,33.69L1.49,33.05L0.57,33.69L0.90,32.61L-0.00,31.93L1.12,31.91L1.49,30.85L1.86,31.91" fill="rgb(255,203,33)"/></g><g class="svg-group svg-group-clickable" data-id="19" data-type="Star" transform="rotate(0,1.4900000095367432,34.96999931335449)"><path d="M1.491815644001555,35.1230095639028L1.49,33.55L1.86,34.62L2.98,34.64L2.09,35.32L2.41,36.39L1.49,35.75L0.57,36.39L0.90,35.32L0.00,34.64L1.12,34.62L1.49,33.55L1.86,34.62" fill="rgb(255,203,33)"/></g><g class="svg-group svg-group-clickable" data-id="20" data-type="Star" transform="rotate(0,1.4900000095367432,38.084999084472656)"><path d="M1.491815644001548,38.235254461861985L1.49,36.67L1.86,37.73L2.98,37.75L2.09,38.43L2.41,39.50L1.49,38.86L0.57,39.50L0.90,38.43L-0.00,37.75L1.12,37.73L1.49,36.67L1.86,37.73" fill="rgb(255,203,33)"/></g><g class="svg-group svg-group-clickable" data-id="21" data-type="Star" transform="rotate(0,1.4900000095367432,40.989999771118164)"><path d="M1.4918156440015524,41.14341772716811L1.49,39.57L1.86,40.64L2.98,40.66L2.09,41.34L2.41,42.41L1.49,41.77L0.57,42.41L0.90,41.34L-0.00,40.66L1.12,40.64L1.49,39.57L1.86,40.64" fill="rgb(255,203,33)"/></g><g class="svg-group svg-group-clickable" data-id="22" data-type="Star" transform="rotate(0,1.4900000095367432,43.89999961853027)"><path d="M1.4918156440015524,44.05158099247423L1.49,42.48L1.86,43.54L2.98,43.57L2.09,44.25L2.41,45.32L1.49,44.68L0.57,45.32L0.90,44.25L-0.00,43.57L1.12,43.54L1.49,42.48L1.86,43.54" fill="rgb(255,203,33)"/></g><g class="svg-group svg-group-clickable" data-id="23" data-type="Star" transform="rotate(0,1.4900000095367432,46.67499923706055)"><path d="M1.491815644001548,46.823689836011646L1.49,45.26L1.86,46.32L2.98,46.34L2.09,47.02L2.41,48.09L1.49,47.45L0.57,48.09L0.90,47.02L-0.00,46.34L1.12,46.32L1.49,45.26L1.86,46.32" fill="rgb(255,203,33)"/></g><g class="svg-group svg-group-clickable" data-id="24" data-type="Star" transform="rotate(0,4.109999895095825,44.75)"><path d="M4.110863263049168,44.90192112852865L4.11,43.33L4.48,44.39L5.60,44.42L4.71,45.10L5.03,46.17L4.11,45.53L3.19,46.17L3.51,45.10L2.62,44.42L3.74,44.39L4.11,43.33L4.48,44.39" fill="rgb(255,203,33)"/></g><g class="svg-group svg-group-clickable" data-id="25" data-type="Star" transform="rotate(0,6.5950000286102295,42.85999870300293)"><path d="M6.593856460328084,43.01020408163265L6.59,41.44L6.96,42.50L8.09,42.53L7.19,43.20L7.52,44.28L6.59,43.64L5.67,44.28L6.00,43.20L5.10,42.53L6.23,42.50L6.59,41.44L6.96,42.50" fill="rgb(255,203,33)"/></g><g class="svg-group svg-group-clickable" data-id="26" data-type="Star" transform="rotate(0,8.739999771118164,41.16000175476074)"><path d="M8.741496598639458,41.30952380952381L8.74,39.74L9.11,40.80L10.23,40.82L9.34,41.50L9.66,42.58L8.74,41.94L7.82,42.58L8.14,41.50L7.25,40.82L8.37,40.80L8.74,39.74L9.11,40.80" fill="rgb(255,203,33)"/></g><g class="svg-group svg-group-clickable" data-id="27" data-type="Star" transform="rotate(0,11.190000057220459,39.39000129699707)"><path d="M11.19047619047619,39.54081632653061L11.19,37.97L11.56,39.03L12.68,39.06L11.79,39.73L12.11,40.81L11.19,40.17L10.27,40.81L10.59,39.73L9.70,39.06L10.82,39.03L11.19,37.97L11.56,39.03" fill="rgb(255,203,33)"/></g><g class="svg-group svg-group-clickable" data-id="28" data-type="Star" transform="rotate(0,13.639999866485596,37.760000228881836)"><path d="M13.639455782312936,37.90816326530612L13.64,36.34L14.01,37.40L15.13,37.42L14.24,38.10L14.56,39.18L13.64,38.54L12.72,39.18L13.04,38.10L12.15,37.42L13.27,37.40L13.64,36.34L14.01,37.40" fill="rgb(255,203,33)"/></g><g class="svg-group svg-group-clickable" data-id="29" data-type="Star" transform="rotate(0,15.75,35.989999771118164)"><path d="M15.748299319727895,36.13945578231292L15.75,34.57L16.12,35.63L17.24,35.65L16.35,36.33L16.67,37.41L15.75,36.77L14.83,37.41L15.15,36.33L14.26,35.65L15.38,35.63L15.75,34.57L16.12,35.63" fill="rgb(255,203,33)"/></g><g class="svg-group svg-group-clickable" data-id="30" data-type="Star" transform="rotate(0,17.994999885559082,34.01999855041504)"><path d="M17.993197278911566,34.166666666666664L17.99,32.60L18.36,33.66L19.49,33.68L18.59,34.36L18.92,35.44L17.99,34.79L17.07,35.44L17.40,34.36L16.50,33.68L17.62,33.66L17.99,32.60L18.36,33.66" fill="rgb(255,203,33)"/></g><g class="svg-group svg-group-clickable" data-id="31" data-type="Star" transform="rotate(0,20.375,32.249999046325684)"><path d="M20.374149659863946,32.39795918367347L20.37,30.83L20.74,31.89L21.87,31.91L20.97,32.59L21.30,33.67L20.37,33.03L19.45,33.67L19.78,32.59L18.88,31.91L20.01,31.89L20.37,30.83L20.74,31.89" fill="rgb(255,203,33)"/></g><g class="svg-group svg-group-clickable" data-id="32" data-type="Star" transform="rotate(0,22.889999389648438,30.679999351501465)"><path d="M22.89115646258503,30.83333333333334L22.89,29.26L23.26,30.33L24.38,30.35L23.49,31.03L23.81,32.10L22.89,31.46L21.97,32.10L22.29,31.03L21.40,30.35L22.52,30.33L22.89,29.26L23.26,30.33" fill="rgb(255,203,33)"/></g><g class="svg-group svg-group-clickable" data-id="33" data-type="Star" transform="rotate(0,25.47499942779541,28.914999961853027)"><path d="M25.47619047619048,29.06462585034014L25.48,27.50L25.84,28.56L26.97,28.58L26.07,29.26L26.40,30.33L25.48,29.69L24.55,30.33L24.88,29.26L23.98,28.58L25.11,28.56L25.48,27.50L25.84,28.56" fill="rgb(255,203,33)"/></g><g class="svg-group svg-group-clickable" data-id="34" data-type="Star" transform="rotate(0,30.375,24.829999923706055)"><path d="M30.374149659863946,24.982993197278915L30.37,23.41L30.74,24.48L31.87,24.50L30.97,25.18L31.30,26.25L30.37,25.61L29.45,26.25L29.78,25.18L28.88,24.50L30.01,24.48L30.37,23.41L30.74,24.48" fill="rgb(255,203,33)"/></g><g class="svg-group svg-group-clickable" data-id="35" data-type="Star" transform="rotate(0,27.925000190734863,26.875)"><path d="M27.925170068027214,27.02380952380953L27.93,25.46L28.29,26.52L29.42,26.54L28.52,27.22L28.85,28.29L27.93,27.65L27.00,28.29L27.33,27.22L26.43,26.54L27.56,26.52L27.93,25.46L28.29,26.52" fill="rgb(255,203,33)"/></g><g class="svg-group svg-group-clickable" data-id="36" data-type="Star" transform="rotate(0,28.265000343322754,23.200000762939453)"><path d="M28.26530612244898,23.350340136054424L28.27,21.78L28.63,22.84L29.76,22.87L28.86,23.54L29.19,24.62L28.27,23.98L27.34,24.62L27.67,23.54L26.77,22.87L27.90,22.84L28.27,21.78L28.63,22.84" fill="rgb(255,203,33)"/></g><g class="svg-group svg-group-clickable" data-id="37" data-type="Star" transform="rotate(0,23.505000114440918,20.210000038146973)"><path d="M23.503401360544213,20.35714285714286L23.50,18.79L23.87,19.85L25.00,19.87L24.10,20.55L24.43,21.63L23.50,20.98L22.58,21.63L22.91,20.55L22.01,19.87L23.13,19.85L23.50,18.79L23.87,19.85" fill="rgb(255,203,33)"/></g><g class="svg-group svg-group-clickable" data-id="38" data-type="Star" transform="rotate(0,4.184999942779541,5.039999961853027)"><path d="M4.183673469387756,5.187074829931975L4.18,3.62L4.55,4.68L5.68,4.70L4.78,5.38L5.11,6.46L4.18,5.81L3.26,6.46L3.59,5.38L2.69,4.70L3.81,4.68L4.18,3.62L4.55,4.68" fill="rgb(255,203,33)"/></g><g class="svg-group svg-group-clickable" data-id="39" data-type="Star" transform="rotate(0,6.565000295639038,6.805000066757202)"><path d="M6.564625850340127,6.955782312925171L6.56,5.39L6.93,6.45L8.06,6.47L7.16,7.15L7.49,8.22L6.56,7.58L5.64,8.22L5.97,7.15L5.07,6.47L6.20,6.45L6.56,5.39L6.93,6.45" fill="rgb(255,203,33)"/></g><g class="svg-group svg-group-clickable" data-id="40" data-type="Star" transform="rotate(0,8.879999876022339,8.77999997138977)"><path d="M8.877551020408166,8.928571428571427L8.88,7.36L9.25,8.42L10.37,8.44L9.47,9.12L9.80,10.20L8.88,9.56L7.96,10.20L8.28,9.12L7.39,8.44L8.51,8.42L8.88,7.36L9.25,8.42" fill="rgb(255,203,33)"/></g><g class="svg-group svg-group-clickable" data-id="41" data-type="Star" transform="rotate(0,11.53000020980835,10.480000019073486)"><path d="M11.530612244897963,10.629251700680273L11.53,9.06L11.90,10.12L13.02,10.14L12.13,10.82L12.45,11.90L11.53,11.26L10.61,11.90L10.93,10.82L10.04,10.14L11.16,10.12L11.53,9.06L11.90,10.12" fill="rgb(255,203,33)"/></g><g class="svg-group svg-group-clickable" data-id="42" data-type="Star" transform="rotate(0,13.845000267028809,12.520000457763672)"><path d="M13.843537414965985,12.67006802721089L13.84,11.10L14.21,12.16L15.34,12.19L14.44,12.86L14.77,13.94L13.84,13.30L12.92,13.94L13.25,12.86L12.35,12.19L13.47,12.16L13.84,11.10L14.21,12.16" fill="rgb(255,203,33)"/></g><g class="svg-group svg-group-clickable" data-id="43" data-type="Star" transform="rotate(0,16.09000015258789,14.700000286102295)"><path d="M16.088435374149665,14.846938775510209L16.09,13.28L16.46,14.34L17.58,14.36L16.69,15.04L17.01,16.12L16.09,15.47L15.17,16.12L15.49,15.04L14.60,14.36L15.72,14.34L16.09,13.28L16.46,14.34" fill="rgb(255,203,33)"/></g><g class="svg-group svg-group-clickable" data-id="44" data-type="Star" transform="rotate(0,18.605000495910645,16.739999771118164)"><path d="M18.605442176870746,16.88775510204082L18.61,15.32L18.97,16.38L20.10,16.40L19.20,17.08L19.53,18.16L18.61,17.52L17.68,18.16L18.01,17.08L17.11,16.40L18.24,16.38L18.61,15.32L18.97,16.38" fill="rgb(255,203,33)"/></g><g class="svg-group svg-group-clickable" data-id="45" data-type="Star" transform="rotate(0,21.260000228881836,18.440000534057617)"><path d="M21.25850340136055,18.588435374149665L21.26,17.02L21.63,18.08L22.75,18.10L21.86,18.78L22.18,19.86L21.26,19.22L20.34,19.86L20.66,18.78L19.77,18.10L20.89,18.08L21.26,17.02L21.63,18.08" fill="rgb(255,203,33)"/></g><g class="svg-group svg-group-clickable" data-id="46" data-type="Star" transform="rotate(0,25.88499927520752,21.97499942779541)"><path d="M25.884353741496604,22.125850340136058L25.88,20.56L26.25,21.62L27.38,21.64L26.48,22.32L26.81,23.39L25.88,22.75L24.96,23.39L25.29,22.32L24.39,21.64L25.52,21.62L25.88,20.56L26.25,21.62" fill="rgb(255,203,33)"/></g><g class="svg-group svg-group-clickable" data-id="47" data-type="Star" transform="rotate(0,8.755000114440918,16.770000457763672)"><path d="M8.751721397841537,17.291632630170366L8.75,11.85L10.03,15.53L13.93,15.61L10.82,17.96L11.95,21.69L8.75,19.47L5.55,21.69L6.68,17.96L3.58,15.61L7.47,15.53L8.75,11.85L10.03,15.53" fill="rgb(255,203,33)"/></g><g class="svg-group svg-group-clickable" data-id="48" data-type="Star" transform="rotate(0,7.965000152587891,32.60499954223633)"><path d="M7.96940847267147,33.1249659635037L7.97,27.68L9.25,31.36L13.14,31.44L10.04,33.80L11.17,37.53L7.97,35.30L4.77,37.53L5.90,33.80L2.79,31.44L6.69,31.36L7.97,27.68L9.25,31.36" fill="rgb(255,203,33)"/></g><g class="svg-group svg-group-clickable" data-id="49" data-type="Star" transform="rotate(0,17.324999809265137,25.039999961853027)"><path d="M17.32314996927011,25.556938752619345L17.32,20.12L18.60,23.80L22.50,23.88L19.39,26.23L20.52,29.96L17.32,27.73L14.12,29.96L15.25,26.23L12.15,23.88L16.04,23.80L17.32,20.12L18.60,23.80" fill="rgb(255,203,33)"/></g><defs id="font-data"><style xmlns="http://www.w3.org/1999/xhtml">svg * { -webkit-tap-highlight-color: rgba(0, 0, 0, 0); }
.svg-group-clickable { cursor: pointer; }
.faded { opacity: 0.75; }
.fadein { opacity: 1; transition: opacity 0.3s ease 0s; }
</style></defs></svg>