 <!--Created for free with Tennessine's Flag Designer at https://tennessine.co.uk/flags/--><!DOCTYPE svg PUBLIC "-//W3C//DTD SVG 1.1//EN" "http://www.w3.org/Graphics/SVG/1.1/DTD/svg11.dtd"><svg xmlns="http://www.w3.org/2000/svg" xmlns:xlink="http://www.w3.org/1999/xlink" width="1470" height="735" viewBox="0 0 100 50" class="svg faded fadein" id="svg"><path d="M0,0L100,0L100,50L0,50Z" fill="rgb(0,0,0)"/><g class="svg-group svg-group-clickable" data-id="1" data-type="Rectangle" transform="rotate(0,50,6.5)"><path d="M0,0L100,0L100,13L0,13Z" fill="rgb(178,34,52)"/></g><g class="svg-group svg-group-clickable" data-id="2" data-type="Rectangle" transform="rotate(0,50,43.400001525878906)"><path d="M0,36.899999999999984L100,36.899999999999984L100,49.899999999999984L0,49.899999999999984Z" fill="rgb(60,59,110)"/></g><g class="svg-group svg-group-clickable" data-id="3" data-type="Rectangle" transform="rotate(0,50,30.88843536376953)"><path d="M0,24.888435374149637L100,24.888435374149637L100,36.888435374149644L0,36.888435374149644Z" fill="rgb(0,150,57)"/></g><g class="svg-group svg-group-clickable" data-id="4" data-type="Rectangle" transform="rotate(0,50,18.946258544921875)"><path d="M0,12.946258503401362L100,12.946258503401362L100,24.94625850340136L0,24.94625850340136Z" fill="rgb(252,209,22)"/></g><g class="svg-group svg-group-clickable" transform="rotate(0,16.665000915527344,25)" data-id="5" data-type="Shape"><path d="M0.00,0.00L33.33,25.00L0.00,50.00" fill="rgb(252,209,22)"/></g><g class="svg-group svg-group-clickable" transform="rotate(0,16.665000915527344,25)" data-id="6" data-type="Shape"><path d="M0.00,0.00L33.33,25.00L0.00,50.00" fill="rgb(255,255,255)"/></g><defs id="font-data"><style xmlns="http://www.w3.org/1999/xhtml">svg * { -webkit-tap-highlight-color: rgba(0, 0, 0, 0); }
.svg-group-clickable { cursor: pointer; }
.faded { opacity: 0.75; }
.fadein { opacity: 1; transition: opacity 0.3s ease 0s; }
</style></defs></svg>