<?xml version="1.0" encoding="UTF-8" standalone="yes"?>
<svg xmlns="http://www.w3.org/2000/svg" xmlns:xlink="http://www.w3.org/1999/xlink" version="1.0" x="0" y="0" width="360" height="240">
<rect width="360" height="80" x="0" y="0" fill="#ce1126" />
  <rect width="360" height="80" x="0" y="80" fill="#fcd116" />
  <rect width="360" height="80" x="0" y="160" fill="#108042" />
<polygon points="0,0 180,120 0,240" fill="#000000" />
<g transform="translate(55.000000,120.000000)">
<g transform="scale(0.200000)">
<g transform="translate(-250.000000,-250.000000)">

<path transform="translate(15,15)" style="fill:#fcd116;stroke:#000;stroke-width:5;"  d="M436.75,202c-6.465,0-12.487,1.881-17.564,5.115 c2.121-4.337,3.314-9.211,3.314-14.365c0-18.088-14.662-32.75-32.75-32.75 c-18.087,0-32.75,14.662-32.75,32.75c0,6.225,1.737,12.044,4.753,17  H259.75  V107.747c4.956,3.016,10.775,4.753,17,4.753c18.088,0,32.75-14.663,32.75-32.75 c0-18.087-14.662-32.75-32.75-32.75c-5.153,0-10.027,1.194-14.365,3.315 c3.234-5.077,5.115-11.1,5.115-17.565  C267.5,14.663,252.838,0,234.75,0  C216.663,0,202,14.663,202,32.75c0,6.465,1.881,12.488,5.115,17.564  C202.777,48.194,197.904,47,192.75,47  C174.663,47,160,61.663,160,79.75c0,18.087,14.663,32.75,32.75,32.75 c6.225,0,12.044-1.737,17-4.753  V209.75  H107.747c3.016-4.956,4.753-10.775,4.753-17c0-18.088-14.663-32.75-32.75-32.75  C61.663,160,47,174.662,47,192.75c0,5.154,1.194,10.027,3.315,14.365  C45.238,203.881,39.215,202,32.75,202  C14.663,202,0,216.662,0,234.75c0,18.087,14.663,32.75,32.75,32.75 c6.465,0,12.488-1.881,17.564-5.115  C48.194,266.723,47,271.596,47,276.75c0,18.087,14.663,32.75,32.75,32.75 c18.087,0,32.75-14.663,32.75-32.75c0-6.225-1.737-12.044-4.753-17  H209.75v102.003c-4.956-3.016-10.775-4.753-17-4.753 c-18.087,0-32.75,14.663-32.75,32.75c0,18.088,14.663,32.75,32.75,32.75 c5.154,0,10.027-1.193,14.365-3.314c-3.234,5.077-5.115,11.1-5.115,17.564 c0,18.088,14.663,32.75,32.75,32.75c18.088,0,32.75-14.662,32.75-32.75 c0-6.465-1.881-12.487-5.115-17.564c4.338,2.121,9.212,3.314,14.365,3.314 c18.088,0,32.75-14.662,32.75-32.75c0-18.087-14.662-32.75-32.75-32.75 c-6.225,0-12.044,1.737-17,4.753  V259.75h102.003c-3.016,4.956-4.753,10.775-4.753,17 c0,18.087,14.663,32.75,32.75,32.75c18.088,0,32.75-14.663,32.75-32.75 c0-5.154-1.193-10.027-3.314-14.365c5.077,3.234,11.1,5.115,17.564,5.115 c18.088,0,32.75-14.663,32.75-32.75  C469.5,216.662,454.838,202,436.75,202z" />
</g>
</g>
</g>
</svg>

