<?xml version="1.0" encoding="UTF-8" standalone="yes"?>
<svg xmlns="http://www.w3.org/2000/svg" xmlns:xlink="http://www.w3.org/1999/xlink" version="1.0" x="0" y="0" width="360" height="240">
<rect width="360" height="80" x="0" y="0" fill="#108042" />
  <rect width="360" height="80" x="0" y="80" fill="#fcd116" />
  <rect width="360" height="80" x="0" y="160" fill="#ce1126" />
<polygon points="0,0 180,120 0,240" fill="#000000" />
<g transform="translate(55.000000,120.000000)">
<g transform="scale(0.245098)">
<g transform="translate(-190.000000,-240.000000)">

 <g transform="translate(-158 0)">
  <path d="m347.544678,30.632526c-24.438385,0 -44.301086,20.098957 -44.301086,44.907223c0,18.265579 10.773651,34.00106 26.198914,41.02858l-0.462646,23.271774l-118.907333,0l0,24.605011l118.386856,0l-3.585754,178.356186c-0.072113,3.599609 0.032196,39.844208 -47.481995,14.787231c-47.645798,-25.126282 -20.719757,-53.588074 -17.523804,-54.421967c-27.991821,-9.039703 -53.362808,-34.153259 -73.854385,-59.936859c-20.111237,45.9487 15.902115,95.002167 17.63945,101.995728c4.322906,-4.845001 10.783722,-4.07486 14.747742,-3.393799c48.499847,77.481598 112.080658,68.203705 129.144043,89.875031c17.063324,-21.671326 80.586395,-12.393433 129.086212,-89.875031c3.96402,-0.681061 10.424866,-1.451202 14.747742,3.393799c1.737274,-6.993561 37.750702,-56.047028 17.639465,-101.995728c-20.491638,25.7836 -45.86261,50.897156 -73.854431,59.936859c3.195984,0.833893 30.122009,29.295685 -17.523834,54.421967c-47.514099,25.056976 -47.40979,-11.187622 -47.481934,-14.787231l-3.585724,-178.356186l118.38681,0l0,-24.605011l-118.907349,0l-0.462677,-23.271774c15.425262,-7.027519 26.198975,-22.763 26.198975,-41.02858c0,-24.808266 -19.804871,-44.907223 -44.243256,-44.907223zm0,28.483646c8.655273,0 15.673096,7.353874 15.673096,16.423576c0,9.069695 -7.017822,16.423546 -15.673096,16.423546c-8.655243,0 -15.730927,-7.353851 -15.730927,-16.423546c0,-9.069702 7.075684,-16.423576 15.730927,-16.423576z" stroke-miterlimit="4" marker-end="none" marker-mid="none" marker-start="none" stroke="#000" stroke-width="3" fill-rule="evenodd" fill="#fcd116"/>
 </g>
</g>
</g>
</g>
</svg>

