<?xml version="1.0" encoding="UTF-8" standalone="yes"?>
<svg xmlns="http://www.w3.org/2000/svg" xmlns:xlink="http://www.w3.org/1999/xlink" version="1.0" x="0" y="0" width="360" height="240">
<rect width="360" height="80" x="0" y="0" fill="#108042" />
  <rect width="360" height="80" x="0" y="80" fill="#fcd116" />
  <rect width="360" height="80" x="0" y="160" fill="#ce1126" />
<polygon points="0,0 180,120 0,240" fill="#000000" />
<g transform="translate(55.000000,120.000000)">
<g transform="scale(0.100000)">
<g transform="translate(-520.000000,-500.000000)">

<g>
<path
   fill="#fcd116"
   stroke="#000"
   stroke-width="6"
d="M759,423.6c0,0,11.4,183.8-184.3,258.2c0,0-33.2,6.2-44.2,65.9c0,0-20.7,92.1-87.9,216.6c0,0-28,60.8-55.3-4.4c0,0-46.9,50.2-53.6-15.6c0,0-57.1,34.5-45.1-31.6c0,0-76.8,24.2-38.5-36.4c0,0-74-8.7-14.9-51c0,0,233.8-110.5,229.1-168.9c0,0,8.2-66.6,37.8-86.8c0,0-67.8,41-27.9-34c0,0-86.8,38-35.7-26.3c0,0-80,48.7-37.5-22.6c0,0-93.3,34.9-28.4-34.7c0,0-106.4,24.5-39.4-31.3c0,0-132.1-0.1-40.2-38.6c0,0-128.2-3.8-32.6-44.9c0,0-135-33.2-57-49.6c0,0-130.7-83.7-23.7-52.4c0,0,81.5,45.2,201.5,28.5c0,0,49.7-8,155.5,66c0,0,36.8,27.6,89.4-19c0,0,92.7-90.9,138.7-88.5c0,0,31.4,0.5,47.3,37.7c0,0,35.4,4.3,50.5,10C862.6,269.9,754.7,295.5,759,423.6z M769.3,260.6c-6.6,16.9,10.8,13.2,10.8,13.2C787.8,258.5,769.3,260.6,769.3,260.6z M594.3,311.3c-26.1,9.8-130.7-51.8-130.7-51.8c-38-20.2-89.8-10.6-89.8-10.6c-55.6,1.3,7.9-28.8,7.9-28.8c-70.3-38.8,1.7-42.1,1.7-42.1c-65.2-54.7-2.2-45.8-2.2-45.8c-47-67.8,21.8-38.7,21.8-38.7c-15-26.8-5.2-59.2-5.2-59.2c14.3-44.5,24.9-14.5,24.9-14.5c15.6,122.3,161.8,205.9,161.8,205.9C644.4,276.5,594.3,311.3,594.3,311.3z"/></g>
</g>
</g>
</g>
</svg>

