<?xml version="1.0" encoding="UTF-8" standalone="yes"?>
<svg xmlns="http://www.w3.org/2000/svg" xmlns:xlink="http://www.w3.org/1999/xlink" version="1.0" x="0" y="0" width="360" height="240">
<rect width="360" height="80" x="0" y="0" fill="#108042" />
  <rect width="360" height="80" x="0" y="80" fill="#fcd116" />
  <rect width="360" height="80" x="0" y="160" fill="#ce1126" />
<polygon points="0,0 180,120 0,240" fill="#000000" />
<g transform="translate(55.000000,120.000000)">
<g transform="scale(0.257732)">
<g transform="translate(-167.000000,-194.000000)">

  <path d="M167.07 386.99C181.05 382.25 181.83 369.94 186.38 359.38 193.89 373.4 212.24 374.18 233.82 371 249.55 367.11 254.08 373.56 259.97 378.75 263.21 368.14 255.46 354.5 239.63 351.63 223.01 353.29 210.03 352.21 202.84 346.79 206.51 343.34 219.94 341.66 231.89 338.08 215.6 317.22 207.34 326.62 195.3 324.9 186.01 317.29 182.97 310.44 179.81 303.6 183.66 301.36 199.22 306.45 215.42 311.93 209.69 293.53 201.49 294.93 192.19 287.72 179.48 283.17 180.97 276.25 176.69 270.3 185.26 275.13 191.52 280.99 206.71 282.88 183.22 258.64 179.93 245.48 180.57 234.47 196.05 230.18 213.34 282.81 219.3 298.38 224.03 293.56 228.04 287.84 235.76 286.76 245.03 296.99 256.1 304.83 267.71 311.93 259.79 317.91 249.69 304.21 241.57 310.96 232.34 322.74 236.85 331.29 240.6 340.01 240.27 331.81 245.03 330.61 250.94 330.98 257.23 332.36 261.67 329.59 264.81 323.9 268.16 320.19 271.5 320.2 274.85 320.35 274.61 331.06 276.88 344.63 271.6 349.57 266.44 366.33 280.63 360.03 275.73 377.02 281.83 373.45 287.21 372.18 292.55 358.13 291.86 347.84 289.29 346.79 286.36 343.96L285.77 324.49C292.67 328.68 298.98 333.73 302 343.37 305.39 359.89 320.04 343.47 324.72 360.49 330.35 343.38 324.7 327.43 313.8 326.55 301.13 328.69 292.57 319.48 292.26 312.98 302.82 311.75 315.05 317.3 323.54 304.71 325.59 302.97 327.58 301.15 332.69 303.24 326.51 292.88 320.61 289.04 311.44 287.6 296.85 283.9 299.4 303.96 284.29 307.66L273.67 305.01 242.68 279.63 254.78 275.5C235.34 260.76 230.49 238.07 218.77 219.13 224.93 211.65 235.28 255.01 255.07 263.4 256.55 254.05 241.99 242.15 231.46 210.27 239.23 206.64 248.48 250.02 283.11 269 290.57 272.75 296.9 270.95 302 268.41 281.32 245.13 265.93 220.56 253.89 192.57 254.63 189.97 255.4 187.47 259.21 192.57 270.21 221.09 289.41 238.92 318.23 254.84 297.35 234.29 280.89 211.53 266.29 187.84 265.92 181.1 268.13 179.94 272.49 183.42 280.93 197.87 289.84 212.08 305.24 222.67 314.89 226.1 323.24 224.94 329.74 217.36 307.12 204.38 297.56 179.52 282.67 159.51 281.28 152.17 284.62 152.71 287.83 153.02 294.31 170.48 310.97 183.58 328.26 196.4L333.58 195.52C316.81 178.67 304.03 159.83 290.19 141.51 291.06 139.27 289.07 135.67 294.32 138.56 300.48 145.23 305.85 151.81 314.98 157.74 321.82 160.92 327.72 159.87 332.99 155.97 317.83 143.12 306.92 128.99 299.64 113.77L301.7 108.46C308.06 119.33 317.39 127.98 330.03 134.13L301.41 93.7C301.01 89.47 303.05 90.11 304.95 90.45 309.86 97.14 315.65 105.12 330.92 100.19 305.84 83 310.85 38.22 296.39 20.22 282.97 5.82 264.08 12.57 256.55 19.63 247.23 32.89 247.39 50.13 259.8 53.86 267.39 61.39 265.44 69.45 258.91 77.76 246.26 95.27 232.78 109.88 217 116.43 198.12 119.26 193.05 113.3 191.33 105.21 202.89 105.71 210.56 101.26 213.46 90.75 194.98 92.86 186 90.02 187.2 81.9 201.21 83.8 204.99 79.46 204.9 72.75 197.87 79.54 195.61 73.41 191.62 68.03 189.44 64.41 190.88 48.17 194.28 42.94 196.51 37.04 198.4 31.13 193.69 25.23 191.48 22.28 190.54 19.33 194.57 16.38 201.83 17.37 203.97 10.7 206.67 4.87 194.48 9.09 179.84 9.4 168.9 4.28 156.81-0.9 141.35-1.74 135.84 8.12 122.35 10.3 116.39 16.51 118.43 25.23L121.97 32.32C122.78 19.67 152.47 29.38 150.01 34.09L133.78 35.56C143.59 40.81 157.36 45.33 155.91 58.58 153.72 76.8 138.09 73.15 126.99 73.04 125.78 78.96 128.42 84.33 138.21 88.68 131.91 91.46 127.02 97.41 117.84 93.7 116.73 101.12 125.9 105.51 137.02 108.46 127.93 116.41 117.68 118.58 105.87 111.47 90.52 105.57 87.82 93.83 75.17 76.33 71.51 68.73 70.28 60.67 74.28 52.42 86.69 48.69 86.85 31.46 77.53 18.19 70 11.14 51.11 4.38 37.69 18.78 23.23 36.78 28.24 81.56 3.16 98.76 18.43 103.69 24.21 95.7 29.13 89.02 31.02 88.67 33.07 88.03 32.67 92.26L4.04 132.7C16.69 126.54 26.02 117.9 32.38 107.02L34.44 112.33C27.16 127.55 16.25 141.68 1.09 154.53 6.36 158.43 12.26 159.49 19.1 156.31 28.23 150.37 33.6 143.8 39.75 137.12 45.01 134.24 43.02 137.84 43.89 140.07 30.05 158.39 17.27 177.23 0.5 194.08L5.82 194.97C23.11 182.14 39.77 169.04 46.25 151.58 49.45 151.27 52.8 150.73 51.41 158.08 36.51 178.08 26.96 202.94 4.34 215.92 10.84 223.5 19.19 224.66 28.84 221.23 44.24 210.64 53.15 196.44 61.59 181.98 65.95 178.5 68.16 179.66 67.79 186.41 53.19 210.09 36.73 232.85 15.85 253.4 44.67 237.48 63.87 219.65 74.87 191.13 78.68 186.03 79.45 188.54 80.19 191.13 68.15 219.13 52.76 243.69 32.08 266.98 37.18 269.52 43.51 271.32 50.97 267.57 85.6 248.58 94.85 205.2 102.62 208.84 92.09 240.71 77.53 252.61 79.01 261.96 98.8 253.58 109.15 210.21 115.31 217.69 103.59 236.63 98.74 259.33 79.3 274.06L91.4 278.19 60.41 303.57 49.79 306.23C34.68 302.52 37.22 282.47 22.64 286.16 13.47 287.6 7.57 291.44 1.39 301.8 6.5 299.71 8.49 301.53 10.54 303.28 19.03 315.86 31.26 310.32 41.82 311.54 41.51 318.04 32.95 327.26 20.28 325.12 9.38 325.99 3.73 341.95 9.36 359.05 14.04 342.03 28.69 358.45 32.08 341.94 35.1 332.29 41.4 327.25 48.31 323.05L47.72 342.53C44.79 345.35 42.22 346.4 41.53 356.69 46.87 370.74 52.25 372.01 58.35 375.58 53.45 358.59 67.64 364.89 62.48 348.13 57.2 343.19 59.47 329.62 59.23 318.92 62.58 318.77 65.92 318.76 69.27 322.46 72.41 328.16 76.85 330.92 83.14 329.54 89.05 329.17 93.81 330.38 93.48 338.58 97.23 329.85 101.74 321.31 92.51 309.53 84.38 302.77 74.29 316.47 66.37 310.5 77.98 303.39 89.05 295.55 98.32 285.32 106.04 286.4 110.05 292.13 114.78 296.94 120.74 281.38 138.03 228.74 153.51 233.03 154.15 244.04 150.86 257.2 127.37 281.45 142.56 279.55 148.82 273.69 157.39 268.86 153.11 274.82 154.6 281.74 141.89 286.29 132.59 293.49 124.39 292.09 118.65 310.5 134.86 305.01 150.42 299.93 154.27 302.16 151.11 309 148.07 315.85 138.78 323.46 126.74 325.19 118.48 315.79 102.19 336.64 114.14 340.22 127.57 341.9 131.24 345.35 124.05 350.78 111.07 351.85 94.45 350.2 78.62 353.06 70.87 366.71 74.11 377.31 80 372.12 84.53 365.67 100.26 369.56 121.84 372.74 140.19 371.96 147.7 357.94 152.25 368.51 153.03 380.81 167.07 386.99L167.07 386.99z" style="fill:#fcd116;stroke-width:3;stroke:#000"/>
</g>
</g>
</g>
</svg>

