<?xml version="1.0" encoding="UTF-8" standalone="yes"?>
<svg xmlns="http://www.w3.org/2000/svg" xmlns:xlink="http://www.w3.org/1999/xlink" version="1.0" x="0" y="0" width="360" height="240">
<rect width="360" height="80" x="0" y="0" fill="#108042" />
  <rect width="360" height="80" x="0" y="80" fill="#fcd116" />
  <rect width="360" height="80" x="0" y="160" fill="#ce1126" />
<polygon points="0,0 180,120 0,240" fill="#000000" />
<g transform="translate(55.000000,120.000000)">
<g transform="scale(0.234742)">
<g transform="translate(-150.000000,-213.000000)">

  <g
     transform="matrix(0.05384615,0,0,0.05384615,-883.23302,-179.46608)" />
  <path
     style="fill:#fcd116;stroke:#000;stroke-width:3;stroke-miterlimit:4;stroke-opacity:1"
     d="m 88.154402,424.11278 c -10.43501,-0.3656 -14.02282,-0.91173 -14.52116,-2.21035 -0.74149,-1.93226 0.48807,-12.36736 5.06485,-42.98414 1.71514,-11.47368 4.20876,-28.86825 5.5413,-38.65463 1.33259,-9.78639 3.28105,-22.91019 4.33005,-29.164 1.04896,-6.25384 1.51959,-12.05202 1.04584,-12.8849 -2.3436,-4.12017 -13.9498,-21.46747 -31.80108,-47.53175 C 23.434422,200.4859 4.8816417,172.8848 2.7964417,168.83291 c -3.20282004,-6.22374 -2.45846004,-8.88762 5.67327,-20.30413 4.2047103,-5.90311 10.1298103,-14.34661 13.1669503,-18.76336 15.25243,-22.18054 42.70606,-60.849077 45.00438,-63.388663 1.10386,-1.219764 2.97953,-2.217769 4.16821,-2.217769 1.96531,0 75.205758,31.834119 88.246878,38.356692 3.48855,1.74479 5.91808,3.94389 6.63744,6.00776 1.33808,3.83911 -1.28759,24.53581 -3.49577,27.55571 -1.6827,2.30123 -6.51074,3.30081 -29.27711,6.06155 -21.81236,2.64506 -24.48873,1.82758 -37.294988,-11.39127 -4.86331,-5.01999 -9.36869,-8.80199 -10.01188,-8.40444 -1.39235,0.8605 1.26998,11.84338 3.83617,15.82548 5.03882,7.81901 3.09639,11.4653 -6.97978,13.1023 -7.68789,1.24897 -10.60259,2.88712 -8.61905,4.8442 0.64117,0.63263 9.81888,4.41598 20.39494,8.40744 14.222108,5.36751 20.043558,8.18344 22.356368,10.8143 1.71993,1.95641 3.14466,3.89202 3.16597,4.30137 0.0214,0.40933 2.73742,5.37922 6.03573,11.04417 50.78948,87.23221 49.64597,85.14736 48.72271,88.82589 -0.46435,1.85002 -3.59298,4.93387 -8.13415,8.01769 -4.05871,2.75626 -7.03565,5.56778 -6.61528,6.24785 0.42026,0.68007 3.60949,1.06415 7.08705,0.85351 l 6.32292,-0.383 -0.29931,11.65776 c -0.16472,6.41178 -1.69116,28.50015 -3.39217,49.08526 -5.06691,61.31825 -5.46916,65.43748 -6.56317,67.2076 -0.99157,1.60434 -48.74777,2.82796 -74.778368,1.91597 z m 89.020768,-0.17895 c -4.87585,-0.561 -6.13572,-3.92522 -5.29108,-14.12827 2.48777,-30.05217 4.46899,-52.40149 5.02268,-56.65704 0.35122,-2.69969 1.71157,-16.46 3.02301,-30.57852 1.31136,-14.11846 2.93962,-26.22531 3.6184,-26.90405 0.82731,-0.82736 3.0739,-0.81307 6.81638,0.0434 3.0702,0.70258 5.85372,0.83821 6.18551,0.30142 0.33172,-0.5368 -2.62803,-6.39939 -6.57725,-13.028 -3.9493,-6.62858 -11.20483,-18.95462 -16.12347,-27.39114 -4.91863,-8.43654 -10.18506,-17.27188 -11.70327,-19.63413 -1.51813,-2.36223 -9.80667,-16.342 -18.41897,-31.06616 -10.84314,-18.53832 -15.26605,-27.16382 -14.38209,-28.04777 0.88399,-0.88398 4.61397,-0.83265 12.12885,0.16685 8.77729,1.16744 14.01985,2.86167 27.41866,8.86073 26.43517,11.83601 27.15068,12.29991 41.25331,26.74942 8.70612,8.92023 14.09248,13.51982 15.8323,13.51982 2.85704,0 7.92419,-3.35522 31.17256,-20.64109 8.3323,-6.19537 15.64532,-11.26432 16.25094,-11.26432 2.44426,0 2.29271,4.33305 -0.80132,22.90645 -7.57207,45.45472 -16.39353,67.57866 -35.15064,88.1554 l -8.61832,9.45429 0.72342,53.08926 c 0.66257,48.61872 0.55098,53.23211 -1.32428,54.78554 -1.58064,1.30936 -7.25179,1.69625 -24.86394,1.69625 -12.54891,0 -24.33511,-0.17482 -26.19139,-0.38833 z m 36.65093,-215.6951 c -8.96927,-9.59127 -10.70895,-12.07192 -9.81702,-13.99868 0.59602,-1.28797 6.10537,-7.75225 12.24288,-14.36509 6.13752,-6.61283 13.49204,-14.72345 16.34316,-18.02362 2.85141,-3.30017 5.96911,-6.78507 6.92829,-7.74423 0.95918,-0.95915 7.31826,-8.01948 14.13134,-15.68959 6.81327,-7.67012 13.09672,-14.21781 13.96339,-14.55041 3.0536,-1.17177 31.35034,32.02737 31.35034,36.78181 0,1.70497 -3.92895,5.20257 -28.7675,25.6097 -10.67927,8.77397 -24.17532,19.95188 -29.99116,24.83974 -5.81574,4.88788 -11.6788,8.86684 -13.02862,8.84219 -1.48327,-0.0271 -6.76701,-4.65684 -13.3551,-11.70182 z m -40.5935,-25.7921 c -9.42413,-4.37803 -17.40624,-8.23152 -17.73803,-8.56333 -1.68457,-1.68457 4.56059,-10.91629 32.39718,-47.88996 34.3109,-45.573061 35.17193,-46.600646 37.79406,-45.100441 3.95518,2.262688 35.24152,33.466621 35.24152,35.148501 0,2.74056 -1.31091,4.3051 -45.46852,54.26449 -7.15859,8.09907 -14.0607,15.96805 -15.33806,17.48664 -3.59431,4.27292 -8.11961,3.3732 -26.88815,-5.3459 z m -52.81183,-20.27689 c -20.631648,-7.74926 -23.270868,-9.20701 -21.590488,-11.92496 0.83879,-1.35661 2.294888,-1.39005 8.095588,-0.18584 7.71003,1.6006 14.66268,1.05683 31.28831,-2.44709 22.60113,-4.76327 24.29029,-4.40538 20.17171,4.27384 -2.61893,5.51897 -14.10177,17.83297 -16.53583,17.73264 -0.98732,-0.0407 -10.63052,-3.39256 -21.42929,-7.44859 z m 50.32981,-43.26489 c 0.54018,-8.64524 0.40983,-14.80134 -0.34181,-16.14453 -0.66826,-1.19404 -7.49515,-5.259888 -15.17088,-9.035197 -8.16232,-4.014639 -14.10849,-7.693061 -14.32359,-8.860839 -0.35381,-1.921069 28.13524,-46.146427 30.9142,-47.990163 4.21681,-2.797638 7.37047,-0.635308 26.299,18.032371 l 19.2368,18.971536 -1.9444,3.475881 c -1.06942,1.911717 -8.80274,12.287692 -17.18526,23.057711 -8.3825,10.77004 -17.42282,22.48098 -20.08943,26.02431 -7.50244,9.96882 -8.42907,9.02505 -7.39463,-7.53108 z M 128.3971,80.359189 C 120.91066,77.845109 83.428802,61.190904 82.708172,60.058338 81.289002,57.827957 81.255012,57.890695 91.188342,44.418734 96.370562,37.390437 104.45921,26.394032 109.16323,19.982268 119.81555,5.4626375 123.3792,1.5752977 126.03748,1.5752977 c 2.45191,0 13.58055,7.9514137 27.87251,19.9148273 8.45645,7.078706 10.04484,8.964722 9.41042,11.173706 -0.99636,3.469398 -30.03286,47.199694 -31.75865,47.829972 -0.72812,0.265916 -2.15225,0.20534 -3.16466,-0.134614 z"/>
</g>
</g>
</g>
</svg>

