<?xml version="1.0" encoding="UTF-8" standalone="yes"?>
<svg xmlns="http://www.w3.org/2000/svg" xmlns:xlink="http://www.w3.org/1999/xlink" version="1.0" x="0" y="0" width="360" height="240">
<rect width="360" height="80" x="0" y="0" fill="#ce1126" />
  <rect width="360" height="80" x="0" y="80" fill="#000000" />
  <rect width="360" height="80" x="0" y="160" fill="#108042" />
<polygon points="0,0 180,120 0,240" fill="#fcd116" />
<g transform="translate(55.000000,120.000000)">
<g transform="scale(0.400000)">
<g transform="translate(-125.000000,-125.000000)">

<path fill="#000000" stroke="#000" stroke-width="2" marker-start="none" marker-mid="none" marker-end="none" stroke-miterlimit="4" stroke-dashoffset="0" stroke-opacity="0.597122" id="path3229" d="m125.505959,8.908875c1.778427,4.897034 10.109993,7.750732 11.533089,15.963379c1.437927,8.298218 -4.956924,12.284363 -9.522133,10.707092l0.088104,16.826233c2.337013,-5.990417 6.442497,-10.124451 12.143547,-12.252441c-1.028564,-3.643799 -2.196396,-7.75061 2.101654,-12.520935c4.29805,-4.770325 14.806686,0.263916 20.228836,-0.636108c-1.871964,4.018372 -1.43013,11.547302 -5.248123,16.429993c-3.925751,5.020508 -13.353348,3.878052 -15.41011,-1.412842c-5.548615,2.583618 -9.868195,9.262756 -10.677872,10.255249c-0.852066,1.044434 -2.797859,3.930298 -2.797859,6.832764l0,22.113403c1.380257,-1.996948 3.553398,-4.258179 5.286064,-5.638428c0.029373,1.174622 0.196884,5.558105 0.176193,6.695679c-1.606339,1.898865 -2.813751,3.764526 -3.87645,6.078979c0.058731,1.130615 -0.352402,18.031372 -0.52861,27.047058c4.023285,-14.184326 12.242249,-34.197815 12.950882,-35.769104c0.675446,-1.497742 1.627975,-2.537231 1.409622,-3.876465c-0.232346,-1.424927 -1.663498,-3.497314 -1.746399,-5.73053c-3.783844,1.500427 -8.754105,-0.350342 -9.951935,-5.262695c-1.193069,-4.892761 5.76088,-12.5354 6.878342,-17.449951c2.815781,3.877808 9.410202,4.18335 12.036041,10.291687c2.601639,6.052002 -1.43399,8.749878 -5.05368,11.037292c0.483246,2.136475 0.349808,4.096741 0.392563,6.145081c3.905823,-5.256653 10.632156,-14.242981 11.674698,-15.417664c0.999557,-1.126282 1.099625,-2.253418 1.218292,-3.736755c0.132355,-1.654541 -0.330154,-5.014648 -1.269897,-7.892639c1.204041,-0.234924 2.67865,-0.646057 3.882706,-0.880981c1.292145,2.554932 1.086578,6.431396 1.145325,9.25061c7.710663,-7.225647 8.923645,-11.653381 8.804214,-16.863342c-3.983124,-0.838806 -8.591064,-5.205994 -6.954834,-11.59967c1.638062,-6.40094 13.159241,-8.512024 16.895081,-11.593384c0.938202,10.617065 7.177612,11.011292 5.993271,17.553772c-1.173401,6.482178 -7.410339,7.248535 -12.355042,6.945374c-0.251129,2.630859 -0.85463,5.437866 -2.339157,7.716248c1.931091,-0.150574 4.287277,-0.240601 6.342819,-0.096619c1.908463,-4.246277 4.719284,-8.30481 11.0439,-6.781433c6.34523,1.52832 9.684647,14.430786 13.944031,15.662109c-6.671112,1.797485 -10.846878,6.160767 -17.495026,6.254822c-6.586884,0.09314 -10.050079,-4.193481 -8.64772,-11.432861c-4.4832,0.270447 -5.622147,-1.346008 -8.447754,1.151428c-2.868881,2.535706 -11.163361,10.347839 -15.946304,17.00354c2.891876,-1.38385 5.523712,-1.520264 8.193054,-2.155762c0.177658,-3.78241 2.206192,-7.792236 8.791977,-8.221497c6.593216,-0.42981 11.332153,11.344788 15.468338,12.236145c-6.343246,1.142151 -7.72084,7.610718 -15.729202,9.121216c-8.023956,1.513428 -10.166656,-5.982422 -9.440598,-9.993774c-8.601227,1.276978 -12.304947,4.299744 -16.397675,14.557922c-4.123016,10.334167 -10.142181,24.979797 -14.676025,43.540588c2.408813,-4.526917 5.108353,-9.386108 7.931259,-13.228333c2.792343,-3.800659 5.049255,-9.007874 5.394028,-10.97052l4.075104,-1.488892l0.249191,2.118103c-0.776123,1.155884 -1.412079,3.820862 -2.118103,5.731323c5.773026,-4.385742 6.612396,-5.687927 8.068466,-11.835693c-4.07045,-0.014832 -8.063049,-1.708984 -7.755417,-8.301575c0.307968,-6.600037 10.348969,-9.708679 12.073563,-13.741211c1.425217,4.516418 9.160065,8.209656 9.325089,14.856384c0.163528,6.585571 -4.355713,7.645447 -9.52681,8.057312l-2.092789,4.962891c12.589111,-6.309448 18.39444,-1.518188 27.459534,-11.88031c-3.985809,-1.559387 -7.943604,-6.773376 -3.487915,-12.024597c4.499298,-5.302673 13.964783,-2.946289 18.984573,-4.853455c-0.580704,5.651306 1.981644,14.335754 -0.691818,18.018616c-2.631409,3.624878 -9.357513,3.699829 -12.52803,0.271667c-1.335892,2.395935 -3.357071,3.795044 -5.502838,5.318787c8.525146,-0.823853 16.365036,0.781799 21.837631,4.443298c0.979507,-3.950867 3.497391,-7.387268 9.91716,-6.670715c6.430084,0.717773 10.091248,12.842834 11.792603,17.547607c-5.236771,0.864502 -10.651047,5.554565 -17.532867,3.907654c-6.965118,-1.666809 -7.502914,-8.666077 -5.433899,-12.177429c-6.465668,-3.367615 -15.885666,-4.105408 -24.629929,-4.496216c2.907349,1.850098 4.236191,2.990234 5.99437,5.647949c3.516266,-1.35907 9.093506,-1.897888 12.638184,2.028931c3.588699,3.975647 -0.166565,15.885925 -1.706757,20.527771c-7.184708,-1.839233 -12.237762,-4.132507 -15.626907,-8.126282c-3.34549,-3.942322 -2.472031,-11.361816 1.366119,-13.400879c-4.430115,-4.823181 -6.2314,-5.015137 -9.331696,-4.744202c-3.105087,0.271362 -14.443787,4.572815 -17.729706,6.472351c1.947006,0.342102 4.185349,1.317078 5.45813,3.057007c2.899551,-2.856812 8.300613,-5.333862 12.726288,-0.437927c4.430664,4.901489 0.362045,15.181152 0.231461,19.999146c-7.184708,-1.839172 -11.532394,-0.617432 -16.331711,-5.218872c-4.755096,-4.559082 -2.658905,-10.863464 1.047073,-12.726318c0.040405,-0.003723 -4.012253,-1.589539 -6.655289,-1.41333c-2.643036,0.176208 -7.400497,6.695679 -10.043533,11.453186c-2.643036,4.757446 -4.581268,11.276917 -4.757462,16.739197c-0.176208,5.46228 0.793076,37.083313 1.719284,45.856873c0.926208,8.77356 9.51265,18.00354 29.7229,11.773804c20.175491,-6.219055 27.47612,1.661438 31.176361,4.128235c3.700256,2.466858 3.14769,9.771973 2.466843,12.069885c-0.704803,2.378723 -1.233414,3.083496 -1.409622,-1.497742c-0.176193,-4.581238 -5.352798,-9.603027 -6.762421,-10.484009c-1.409607,-0.881042 -3.435944,-1.762024 -3.435944,0.176147c0,1.938232 1.850128,9.162537 3.083542,12.157959c1.233429,2.995483 -2.820541,0.615356 -4.228851,-0.880981c-1.409622,-1.497742 -3.171646,-8.105286 -3.700256,-11.100769c-0.528595,-2.995422 -7.641342,-1.108765 -9.691116,-0.880981c-2.378738,0.264282 -8.81012,2.466797 -8.81012,2.466797c0,0 3.803452,2.415222 6.094086,3.82489c2.290634,1.409607 4.122864,5.295227 4.40506,7.929077c0.264297,2.466858 1.16011,4.854614 2.378738,7.048096c1.218613,2.193542 -0.881012,0.969116 -2.819244,-0.264282c-1.938217,-1.233459 -3.788345,-5.726624 -4.669357,-8.545837c-0.881012,-2.819214 -3.891571,-5.234436 -6.358398,-5.93927c-2.466827,-0.704773 -9.426819,-1.05719 -9.426819,-1.05719c0,0 4.228851,2.554932 6.519485,4.316956c2.290634,1.762024 3.238373,7.892578 2.885971,9.654602c-0.352417,1.762024 -0.440506,8.281555 0.088104,10.748352c0.528595,2.466797 -0.352417,2.995422 -2.466843,-0.528625c-2.114426,-3.523987 -2.113281,-8.310791 -2.20253,-12.774658c-0.089249,-4.463867 -3.062164,-4.36853 -5.7052,-6.65918c-2.643036,-2.290649 -3.87645,-1.585815 -5.990891,-2.290649c-2.114426,-0.704773 -6.343277,-3.171631 -8.633911,-4.757446c-2.290619,-1.585815 -5.462265,-4.052673 -5.462265,-4.052673c0,0 2.114426,3.083557 5.286057,6.607605c3.171646,3.524048 1.145325,8.898193 -0.969101,11.717468c-2.114441,2.819214 -3.171646,8.369629 -2.290634,10.307861c0.881012,1.938171 1.289825,5.957275 0.792908,8.19342c-0.52861,2.378662 -1.321503,0.704773 -1.585815,-1.762024c-0.282211,-2.633911 -1.67392,-4.581299 -2.554932,-7.576721c-0.881027,-2.995483 -0.704803,-6.69574 1.938217,-11.188904c2.639648,-4.487366 0.792908,-6.783752 -0.616699,-7.664795c-1.409622,-0.880981 -1.456772,-1.673889 -5.963173,-7.048096c-4.506424,5.726624 -4.553574,6.519531 -5.963196,7.400513c-1.409607,0.881042 -3.256348,3.177429 -0.616699,7.664795c2.643021,4.493164 2.819244,8.19342 1.938217,11.188843c-0.881012,2.995483 -2.27272,4.942871 -2.554932,7.576782c-0.264313,2.466797 -1.057205,4.140686 -1.585815,1.761963c-0.496918,-2.236084 -0.088104,-6.255188 0.792908,-8.19342c0.881012,-1.938232 -0.176193,-7.488586 -2.290634,-10.3078c-2.114426,-2.819275 -4.140747,-8.19342 -0.969101,-11.717468c3.171631,-3.524048 5.286057,-6.607605 5.286057,-6.607605c0,0 -3.171646,2.466858 -5.462265,4.052673c-2.290634,1.585815 -6.519485,4.052673 -8.633919,4.757446c-2.114426,0.704834 -3.347847,0 -5.990875,2.290649c-2.643044,2.290588 -5.989746,2.319885 -6.078995,6.783752c-0.089241,4.463867 -0.088097,9.250671 -2.202515,12.774658c-2.114433,3.524048 -2.995445,2.995422 -2.466843,0.528625c0.52861,-2.466797 0.440506,-8.986328 0.088097,-10.748352c-0.352394,-1.762024 0.969124,-8.017212 3.25975,-9.779175c2.290634,-1.762085 6.519493,-4.317017 6.519493,-4.317017c0,0 -6.959999,0.352417 -9.426834,1.057251c-2.466827,0.704834 -5.72657,2.995422 -6.607574,5.814697c-0.881012,2.819214 -2.73114,7.312378 -4.669365,8.545776c-1.93824,1.233398 -4.037857,2.457825 -2.819244,0.264282c1.21862,-2.193481 2.114441,-4.581238 2.378738,-7.048035c0.282196,-2.63385 2.114426,-6.519531 4.40506,-7.929138c2.290627,-1.409607 6.343277,-3.700256 6.343277,-3.700256c0,0 -6.431381,-2.202515 -8.81012,-2.466797c-2.049782,-0.227783 -9.162521,-2.114441 -9.691132,0.880981c-0.528595,2.995422 -2.290619,9.603027 -3.700233,11.100769c-1.408325,1.496338 -5.46228,3.876465 -4.228867,0.880981c1.233421,-2.995422 3.083542,-10.219727 3.083542,-12.157959c0,-1.938232 -2.026321,-1.05719 -3.435951,-0.176208c-1.409607,0.881042 -6.959984,5.902771 -7.136185,10.48407c-0.176201,4.581238 -0.704811,3.876465 -1.409622,1.497681c-0.680847,-2.297852 -1.233414,-9.603027 2.466843,-12.069824c3.700233,-2.466858 11.62384,-10.596497 31.799324,-4.377441c20.210258,6.229736 28.7967,-3.000244 29.722908,-11.773804c0.926208,-8.77356 1.646301,-40.145386 1.470093,-45.607666c-0.176193,-5.46228 -2.114426,-11.98175 -4.757462,-16.739258c-2.643036,-4.757446 -7.400497,-11.276917 -10.043533,-11.453125c-2.643036,-0.176208 -6.695694,1.409607 -6.655296,1.41333c3.705994,1.862793 5.802185,8.167236 1.047081,12.726257c-4.799316,4.60144 -9.147011,3.379761 -16.331718,5.218933c-0.130577,-4.817993 -4.199196,-15.097717 0.231468,-19.999146c4.425682,-4.895935 9.826729,-2.418884 12.726295,0.437927c1.272766,-1.739929 3.511116,-2.714966 5.45813,-3.057068c-3.285934,-1.899536 -14.624634,-6.200928 -17.729713,-6.47229c-3.100296,-0.270935 -4.901581,-0.079041 -9.331696,4.744202c3.83815,2.039063 4.711609,9.458557 1.366127,13.400879c-3.389153,3.993774 -8.4422,6.287048 -15.626907,8.126221c-1.540207,-4.641785 -5.295471,-16.552124 -1.706764,-20.52771c3.54467,-3.926819 9.121918,-3.388 12.638191,-2.028931c1.758171,-2.657715 3.087021,-3.797852 5.994362,-5.647949c-8.744263,0.390747 -18.164261,1.12854 -24.629929,4.496216c2.069016,3.511353 1.531219,10.510559 -5.433907,12.177429c-6.881805,1.646851 -12.296089,-3.043152 -17.532858,-3.907654c1.701347,-4.704834 5.362516,-16.829834 11.792601,-17.547607c6.419777,-0.716614 8.937653,2.719849 9.91716,6.670715c5.472603,-3.661499 13.312477,-5.267212 21.837631,-4.443298c-2.145775,-1.523743 -4.166939,-2.922913 -5.502838,-5.318787c-3.170525,3.428162 -9.896622,3.35321 -12.52803,-0.271729c-2.673462,-3.6828 -0.111115,-12.367249 -0.691826,-18.018555c5.019806,1.907166 14.485283,-0.449219 18.984581,4.853394c4.455681,5.251221 0.497902,10.46521 -3.487907,12.024658c9.065071,10.362122 14.870407,5.570801 27.459526,11.88031l-2.092789,-4.962891c-5.171097,-0.411926 -9.690338,-1.471802 -9.52681,-8.057312c0.165024,-6.646729 7.899872,-10.339966 9.325081,-14.856384c1.724602,4.032532 11.765602,7.141174 12.07357,13.741211c0.307632,6.59259 -3.684959,8.286682 -7.755409,8.301575c1.45607,6.147766 2.295433,7.449951 8.068459,11.835693c-0.706032,-1.910461 -1.855019,-4.75 -2.118095,-5.731323l0.249184,-2.491882l4.075104,1.86261c0.138443,1.621338 2.601685,7.169922 5.394028,10.97052c2.822906,3.842285 4.817627,9.053833 7.226456,13.58075c-4.533844,-18.560791 -10.553009,-33.558838 -14.676033,-43.892944c-4.092728,-10.25824 -7.963799,-13.031738 -16.565018,-14.308777c0.726044,4.011353 -1.416656,11.507263 -9.440605,9.993835c-8.008354,-1.510498 -9.385948,-7.979065 -15.729195,-9.121277c4.136177,-0.891357 8.875114,-12.665894 15.46833,-12.236145c6.585785,0.429321 8.614326,4.439087 8.791977,8.221558c2.669342,0.635498 5.116127,0.522644 8.008011,1.906555c-4.782944,-6.655701 -12.372612,-13.763 -15.241501,-16.298706c-2.8256,-2.497437 -4.316963,-1.233459 -8.800163,-1.503845c1.402359,7.239319 -2.060837,11.52594 -8.64772,11.4328c-6.648148,-0.093994 -10.823906,-4.457336 -17.495018,-6.254761c4.259369,-1.231384 7.598793,-14.13385 13.944023,-15.66217c6.324631,-1.523376 9.135437,2.535156 11.0439,6.781433c2.055542,-0.143982 4.235527,-0.58252 6.166626,-0.431946c-1.484528,-2.278442 -2.088051,-4.733032 -2.339157,-7.363831c-4.94471,0.303101 -11.181648,-0.463196 -12.355049,-6.945374c-1.184319,-6.54248 5.055069,-6.936707 5.993279,-17.553772c3.73584,3.081299 15.257019,5.192383 16.895081,11.593323c1.636223,6.393738 -2.971718,10.760864 -6.954842,11.59967c-0.119431,5.210022 1.974571,9.461487 9.685234,16.687195c0.058739,-2.819275 -0.146835,-6.695679 1.145317,-9.25061c1.204048,0.234924 2.055687,0.646057 3.259743,0.880981c-0.939743,2.877991 -1.277672,6.362671 -1.145309,8.017212c0.11866,1.483337 -0.030441,2.485901 0.969109,3.612122c1.042542,1.174683 7.81163,10.513428 11.717445,15.770142c0.042755,-2.04834 -0.090691,-4.008606 0.392563,-6.145081c-3.61969,-2.287415 -7.655319,-4.985291 -5.05368,-11.037354c2.625839,-6.108337 9.220253,-6.413818 12.036034,-10.291626c1.117462,4.91449 8.071426,12.557129 6.878357,17.449951c-1.197845,4.912354 -6.168106,6.763123 -9.951935,5.262634c-0.082901,2.233215 -0.80925,3.953186 -1.041595,5.378174c-0.218353,1.339233 0.029373,2.73114 0.704819,4.228882c0.708618,1.571228 9.632401,21.232361 13.655685,35.416626c-0.176208,-9.015686 -0.587341,-25.916382 -0.52861,-27.047058c-1.062698,-2.314392 -2.270111,-4.180054 -3.87645,-6.078979c-0.020691,-1.137512 0.14682,-5.520996 0.176193,-6.695679c1.732666,1.380249 3.905807,3.641541 5.286072,5.638489l0,-22.113403c0,-2.902466 -2.31958,-4.417847 -3.171646,-5.46228c-0.809677,-0.992493 -6.873566,-7.173218 -10.927063,-11.376526c-2.056763,5.290894 -12.252937,5.589661 -14.78714,1.163635c-2.512741,-4.388489 -1.881027,-10.418152 -2.257874,-18.548096c5.42215,0.900024 13.563515,0.351135 17.487778,4.249329c3.968384,3.941956 2.881042,7.382019 1.852463,11.025818c4.081329,4.4953 8.062225,7.757141 12.143555,12.252441l0.088104,-16.826233c-3.942245,0.954285 -11.83223,-2.533508 -10.394302,-10.831726c1.423096,-8.212646 10.626831,-11.294128 12.405273,-16.191162z"/>
</g>
</g>
</g>
</svg>

