<?xml version="1.0" encoding="UTF-8" standalone="yes"?>
<svg xmlns="http://www.w3.org/2000/svg" xmlns:xlink="http://www.w3.org/1999/xlink" version="1.0" x="0" y="0" width="360" height="240">
<rect width="360" height="80" x="0" y="0" fill="#ce1126" />
  <rect width="360" height="80" x="0" y="80" fill="#000000" />
  <rect width="360" height="80" x="0" y="160" fill="#108042" />
<polygon points="0,0 180,120 0,240" fill="#fcd116" />
<g transform="translate(55.000000,120.000000)">
<g transform="scale(0.210970)">
<g transform="translate(-237.000000,-205.000000)">

<path fill="#000000" stroke="#000" stroke-width="4" d="M249.742,0c89.803,0.594,173.896,71.954,185.011,161.84
	c9.317,47.907-6.83,95.419-31.309,136.005c11.021,11.351,22.127,22.633,33.378,33.773c-15.525,15.634-31.042,31.272-46.676,46.797
	c-11.136-11.349-22.367-22.584-33.77-33.646c-45.544,28.676-101.86,41.625-154.864,29.241c-39.33-7.05-72.611-30.929-102.893-55.676
	c-21.957,19.043-44.083,37.89-66.025,56.95C21.743,362.392,10.774,349.617,0,336.674c31.442-28.342,62.788-56.97,96.502-82.614
	c36.419,35.839,84.923,59.457,136.459,60.802c26.628,3.53,52.251-6.872,76.109-17.27c-42.11-42.682-85.728-83.866-127.299-127.094
	c-12.67,12.271-25.242,24.641-37.881,36.944c-17.393-18.066-35.282-35.637-52.725-53.649c33.077-28.003,93.416-90.198,93.416-90.198
	l91.196,14.444c0,0-31.854,29.664-47.121,45.177c42.148,42.759,84.47,85.356,127.432,127.304
	c34.532-65.207,13.877-148.159-35.388-199.996C301.421,28.129,275.023,14.328,249.742,0z"/>
</g>
</g>
</g>
</svg>

