<?xml version="1.0" encoding="UTF-8" standalone="yes"?>
<svg xmlns="http://www.w3.org/2000/svg" xmlns:xlink="http://www.w3.org/1999/xlink" version="1.0" x="0" y="0" width="360" height="240">
<rect width="360" height="80" x="0" y="0" fill="#ce1126" />
  <rect width="360" height="80" x="0" y="80" fill="#000000" />
  <rect width="360" height="80" x="0" y="160" fill="#108042" />
<polygon points="0,0 180,120 0,240" fill="#fcd116" />
<g transform="translate(55.000000,120.000000)">
<g transform="scale(0.100000)">
<g transform="translate(-500.000000,-520.000000)">

<g><path d="M985.4,471.6c-21.8-76.1-105-83.9-154-71.7C797.7,273,632.1,275.4,552.3,354.2c-19.1-32.2-27.3-74.9-28.6-99c24.3,1.2,49.1,4.6,72.4,10.6c9-18.9,9-49.8,0-68.8c-23.2,6-48.1,9.4-72.4,10.7c1.3-24.3,4.7-49.1,10.7-72.4c-9.5-4.5-22-6.7-34.4-6.7c-12.4,0-24.9,2.2-34.4,6.7c6,23.2,9.4,48.1,10.7,72.4c-24.3-1.4-49.1-4.7-72.4-10.7c-8.9,19-8.9,49.8,0,68.8c23.3-6,48.1-9.4,72.4-10.6c-1.3,24.1-9.5,66.9-28.7,99c-79.8-78.8-245.4-81.2-279.1,45.7c-49.1-12.2-132.2-4.4-154,71.7c-29.1,101.4,86.5,150.1,162.5,252.3c31.4,42.2,36.9,86.7,40.8,116.7c2.7,21.2,12.2,30.8,37.4,30.8h489.4c25.2,0,34.6-9.6,37.4-30.8c3.8-29.9,9.4-74.5,40.8-116.7C898.9,621.7,1014.4,572.9,985.4,471.6L985.4,471.6z M251.3,750.2C204.5,633.7,92.8,568.7,109.8,501.3c6.8-26.8,27-43.5,58-44.4c21.4,87.1,121.9,157,158.6,274.3C294.1,736.9,279.8,741.2,251.3,750.2L251.3,750.2z M383.1,722.9c-19.5-125.8-136.7-203-85.9-294.7c28-50.6,96.4-49.4,135.1-24.9c-34.5,107.8,31.9,183.8,36,311.2C447.3,714.9,408.9,719.8,383.1,722.9L383.1,722.9z M531.8,714.5c4.1-127.5,70.4-203.5,35.9-311.2c38.7-24.4,107.1-25.7,135.1,24.9c50.9,91.7-66.4,168.9-85.8,294.7C591.1,719.8,552.7,714.9,531.8,714.5z M748.6,750.2c-28.5-8.9-42.8-13.3-75-19C710.3,613.9,810.8,544,832.2,456.9c31,0.9,51.2,17.7,58,44.4C907.2,568.7,795.5,633.7,748.6,750.2z" stroke="#000" stroke-width="5" fill="#000000"/></g>
</g>
</g>
</g>
</svg>

