<?xml version="1.0" encoding="UTF-8" standalone="yes"?>
<svg xmlns="http://www.w3.org/2000/svg" xmlns:xlink="http://www.w3.org/1999/xlink" version="1.0" x="0" y="0" width="360" height="240">
<rect width="360" height="80" x="0" y="0" fill="#ce1126" />
  <rect width="360" height="80" x="0" y="80" fill="#000000" />
  <rect width="360" height="80" x="0" y="160" fill="#108042" />
<polygon points="0,0 180,120 0,240" fill="#fcd116" />
<g transform="translate(55.000000,120.000000)">
<g transform="scale(0.555556)">
<g transform="translate(-90.000000,-90.000000)">

  <path d="M56.1 8.16C53.88 16.83 56.32 23.96 60.56 30.68 63.83 35.87 65.98 41.41 65.88 47.36 64.39 48.2 62.97 49.1 61.6 50.08L27.39 27.35 50.35 61.19C49.94 61.76 49.54 62.35 49.15 62.93 42.64 60 36.52 59.42 30.7 60.55 22.46 62.14 15.46 60.41 8.16 56.06 12.72 63.75 19.52 67.07 27.27 68.82 33.27 70.19 38.69 72.58 42.83 76.87 42.38 78.49 42.01 80.13 41.73 81.79L1.46 89.95 41.63 97.64C41.74 98.33 41.88 99.02 42.02 99.71 35.34 102.24 30.58 106.14 27.26 111.06 22.56 118.01 16.43 121.74 8.19 123.82 16.85 126.04 23.97 123.57 30.69 119.34 35.88 116.06 41.42 113.91 47.37 114.01 48.21 115.5 49.11 116.92 50.09 118.29L27.38 152.53 61.23 129.52C61.79 129.93 62.37 130.35 62.95 130.74 60.01 137.25 59.44 143.4 60.57 149.22 62.16 157.46 60.43 164.43 56.07 171.73 63.76 167.17 67.08 160.37 68.84 152.62 70.2 146.62 72.59 141.2 76.88 137.06 78.51 137.51 80.14 137.88 81.8 138.17L89.97 178.43 97.65 138.26C98.34 138.15 99.03 138.01 99.72 137.87 102.25 144.56 106.15 149.31 111.07 152.63 118.02 157.33 121.75 163.46 123.84 171.7 126.05 163.04 123.58 155.92 119.35 149.2 116.07 144 113.94 138.48 114.05 132.51 115.53 131.67 116.94 130.77 118.3 129.8L152.54 152.51 129.56 118.65C129.97 118.09 130.37 117.52 130.75 116.94 137.27 119.89 143.4 120.45 149.24 119.32 157.47 117.73 164.44 119.47 171.74 123.82 167.18 116.13 160.39 112.84 152.65 111.08 146.65 109.72 141.24 107.29 137.1 103 137.55 101.38 137.89 99.75 138.18 98.09L178.46 89.95 138.27 82.24C138.16 81.55 138.02 80.86 137.88 80.17 144.57 77.64 149.32 73.74 152.64 68.82 157.34 61.87 163.48 58.17 171.73 56.08 163.06 53.87 155.93 56.31 149.21 60.54 144.01 63.82 138.49 65.95 132.52 65.84 131.69 64.36 130.78 62.95 129.81 61.59L152.54 27.38 118.66 50.33C118.1 49.92 117.53 49.52 116.96 49.14 119.89 42.63 120.47 36.51 119.35 30.68 117.75 22.45 119.48 15.45 123.83 8.15 116.14 12.71 112.85 19.5 111.1 27.24 109.73 33.25 107.3 38.69 102.99 42.83 101.38 42.38 99.76 42 98.1 41.71L89.96 1.43 82.25 41.62C81.56 41.73 80.87 41.87 80.18 42.01 77.65 35.32 73.75 30.57 68.83 27.25 61.88 22.55 58.18 16.41 56.1 8.16z" style="fill:#000000;stroke-width:1.5;stroke:#000"/>
</g>
</g>
</g>
</svg>

